<svg width="9" height="9" viewBox="0 0 9 9" fill="none" xmlns="http://www.w3.org/2000/svg">
<path d="M4.5 0C3.60999 0 2.73996 0.26392 1.99994 0.758387C1.25991 1.25285 0.683138 1.95566 0.342544 2.77792C0.00194978 3.60019 -0.0871652 4.50499 0.0864683 5.3779C0.260102 6.25082 0.688685 7.05264 1.31802 7.68198C1.94736 8.31131 2.74918 8.7399 3.6221 8.91353C4.49501 9.08717 5.39981 8.99805 6.22208 8.65746C7.04434 8.31686 7.74715 7.74008 8.24161 7.00006C8.73608 6.26004 9 5.39001 9 4.5C9 3.90905 8.8836 3.32389 8.65746 2.77792C8.43131 2.23196 8.09984 1.73588 7.68198 1.31802C7.26412 0.900156 6.76804 0.568688 6.22208 0.342542C5.67611 0.116396 5.09095 0 4.5 0ZM7.0542 3.70665L4.3542 6.18165C4.26872 6.26003 4.15627 6.30238 4.04032 6.29987C3.92436 6.29735 3.81386 6.25017 3.73185 6.16815L2.38185 4.81815C2.33887 4.77664 2.30459 4.72698 2.28101 4.67208C2.25742 4.61718 2.24501 4.55813 2.24449 4.49838C2.24397 4.43863 2.25536 4.37937 2.27798 4.32407C2.30061 4.26877 2.33402 4.21852 2.37627 4.17627C2.41853 4.13402 2.46877 4.10061 2.52407 4.07798C2.57938 4.05535 2.63863 4.04397 2.69838 4.04449C2.75813 4.04501 2.81718 4.05742 2.87208 4.081C2.92699 4.10459 2.97664 4.13887 3.01815 4.18185L4.0635 5.2272L6.4458 3.04335C6.53376 2.96267 6.65017 2.92024 6.76941 2.92539C6.88866 2.93053 7.00097 2.98284 7.08165 3.0708C7.16233 3.15876 7.20476 3.27516 7.19961 3.39441C7.19447 3.51365 7.14216 3.62597 7.0542 3.70665Z" fill="white"/>
</svg>
